<?xml version="1.0" encoding="utf-8"?>
<!-- Generator: Adobe Illustrator 24.0.3, SVG Export Plug-In . SVG Version: 6.00 Build 0)  -->
<svg width="200px" height="auto" version="1.1" id="Layer_1" xmlns="http://www.w3.org/2000/svg" xmlns:xlink="http://www.w3.org/1999/xlink" x="0px" y="0px"
	 viewBox="0 0 200 32.3" style="enable-background:new 0 0 200 32.3;" xml:space="preserve">
<g>
	<path d="M8.7,2h7.9l8.6,22.1h-8.1L16,20.9H9l-1.1,3.2H0L8.7,2z M12.5,9.7l-1.8,5.5h3.6L12.5,9.7z"/>
	<path d="M26.7,7.7h7v1.8h0.1c0.4-0.6,1-1.1,1.9-1.6c0.8-0.4,1.8-0.7,2.8-0.7c1.1,0,2.1,0.2,2.8,0.6c0.8,0.4,1.4,1,1.8,1.6
		c0.4,0.7,0.8,1.4,0.9,2.2c0.2,0.8,0.3,1.6,0.3,2.4v10h-7.2v-8.7c0-0.8-0.1-1.4-0.4-1.7c-0.3-0.3-0.7-0.5-1.2-0.5
		c-0.5,0-0.9,0.2-1.2,0.6c-0.3,0.4-0.5,0.9-0.5,1.7v8.7h-7.2V7.7z"/>
	<path d="M46.7,15.9c0-1.1,0.2-2.1,0.5-3.1c0.3-1,0.8-1.9,1.4-2.7c0.6-0.8,1.4-1.5,2.3-2c0.9-0.5,2-0.7,3.2-0.7
		c0.8,0,1.6,0.2,2.4,0.5C57.4,8,58,8.5,58.5,9h0.1V0.5h7.2v23.6h-6.5v-1.7h-0.1c-0.5,0.7-1.2,1.2-2.1,1.6c-0.9,0.4-1.9,0.6-2.9,0.6
		c-1.2,0-2.3-0.2-3.2-0.7c-0.9-0.5-1.7-1.2-2.3-2s-1.1-1.8-1.4-2.8C46.9,18,46.7,16.9,46.7,15.9z M53.4,15.9c0,0.8,0.2,1.5,0.7,2
		c0.5,0.5,1.1,0.8,2,0.8c0.9,0,1.5-0.3,2-0.8c0.5-0.5,0.8-1.2,0.8-2c0-0.7-0.3-1.4-0.8-1.9c-0.5-0.5-1.2-0.8-2-0.8
		c-0.9,0-1.5,0.3-2,0.8C53.7,14.5,53.4,15.1,53.4,15.9z"/>
	<path d="M74,23.5L67.3,7.7h8l2.4,8.6h0.1L80,7.7h7.7L81,25.1c-0.4,1-0.8,1.9-1.3,2.7s-1.1,1.5-1.7,2c-0.7,0.6-1.5,1-2.4,1.3
		c-0.9,0.3-2,0.4-3.2,0.4c-0.4,0-0.8,0-1.2,0c-0.4,0-0.8-0.1-1.1-0.1c-0.4-0.1-0.7-0.1-1-0.2c-0.3-0.1-0.6-0.1-0.8-0.2l0.9-6
		c0.3,0.1,0.6,0.2,1,0.3c0.4,0.1,0.7,0.1,1,0.1c0.8,0,1.4-0.2,1.8-0.5s0.7-0.7,0.9-1.2L74,23.5z"/>
	<path d="M104.6,24.7c-0.9,0-1.8-0.1-2.6-0.2c-0.9-0.2-1.7-0.4-2.5-0.7s-1.6-0.7-2.3-1.1c-0.7-0.4-1.3-0.9-1.9-1.4l4.5-4.9
		c0.5,0.6,1.2,1.1,2.1,1.5s1.8,0.7,2.7,0.7c0.4,0,0.8-0.1,1.1-0.2c0.3-0.1,0.5-0.4,0.5-0.8c0-0.2-0.1-0.4-0.2-0.5
		c-0.1-0.1-0.3-0.3-0.6-0.5s-0.7-0.3-1.2-0.5s-1.1-0.4-1.9-0.7c-0.7-0.2-1.5-0.5-2.2-0.9c-0.7-0.3-1.3-0.8-1.8-1.3s-1-1.1-1.3-1.8
		c-0.3-0.7-0.5-1.5-0.5-2.5c0-1.4,0.3-2.5,0.8-3.5c0.6-1,1.3-1.7,2.2-2.4c0.9-0.6,1.9-1.1,3-1.3c1.1-0.3,2.2-0.4,3.3-0.4
		c1.5,0,2.9,0.3,4.4,0.8s2.8,1.4,4,2.4l-4.6,4.7c-0.5-0.6-1.1-1.1-1.8-1.4c-0.7-0.3-1.4-0.5-2-0.5c-0.5,0-1,0.1-1.3,0.2
		c-0.3,0.2-0.5,0.4-0.5,0.8c0,0.3,0.2,0.6,0.5,0.7c0.3,0.2,0.9,0.4,1.7,0.6c0.8,0.2,1.6,0.5,2.5,0.9c0.9,0.3,1.7,0.8,2.4,1.3
		s1.3,1.2,1.8,2s0.7,1.7,0.7,2.9c0,1.3-0.3,2.5-0.8,3.5c-0.5,1-1.2,1.8-2.1,2.5s-1.8,1.1-2.9,1.5C106.8,24.6,105.7,24.7,104.6,24.7z
		"/>
	<path d="M125,24.7c-1.4,0-2.7-0.2-3.8-0.6c-1.2-0.4-2.2-1-3-1.8c-0.9-0.8-1.5-1.7-2-2.8c-0.5-1.1-0.7-2.3-0.7-3.7
		c0-1.3,0.2-2.5,0.7-3.6c0.5-1.1,1.2-2,2-2.8c0.9-0.8,1.9-1.4,3.1-1.8c1.2-0.4,2.4-0.6,3.8-0.6c0.6,0,1.1,0,1.7,0.1
		c0.6,0.1,1.1,0.2,1.7,0.4c0.5,0.2,1,0.4,1.5,0.6c0.4,0.2,0.8,0.4,1.1,0.7l-3.6,5.2c-0.2-0.3-0.6-0.5-1-0.6
		c-0.4-0.2-0.8-0.2-1.2-0.2c-0.4,0-0.7,0.1-1,0.2c-0.3,0.1-0.6,0.3-0.9,0.5s-0.5,0.5-0.6,0.9c-0.2,0.3-0.2,0.7-0.2,1.2
		c0,0.5,0.1,0.9,0.2,1.2c0.2,0.3,0.4,0.6,0.6,0.8s0.6,0.4,0.9,0.5c0.3,0.1,0.7,0.2,1,0.2c0.4,0,0.8-0.1,1.2-0.2
		c0.4-0.2,0.7-0.4,1-0.6l3.6,5c-0.7,0.5-1.6,1-2.7,1.4S126.2,24.7,125,24.7z"/>
	<path d="M144.4,7.3c1.1,0,2.1,0.2,2.8,0.6c0.8,0.4,1.4,1,1.8,1.6c0.4,0.7,0.8,1.4,0.9,2.2c0.2,0.8,0.3,1.6,0.3,2.4v10h-7.2v-8.7
		c0-0.8-0.1-1.4-0.4-1.7c-0.3-0.3-0.7-0.5-1.2-0.5c-0.4,0-0.8,0.2-1.1,0.5c-0.3,0.4-0.5,0.9-0.5,1.7v8.7h-7.2V0.5h7.2v9h0.1
		c0.4-0.6,1-1.1,1.8-1.6C142.5,7.5,143.4,7.3,144.4,7.3z"/>
	<path d="M170.9,24.1h-7v-1.8h-0.1c-0.4,0.6-1,1.1-1.9,1.6c-0.8,0.4-1.8,0.7-2.8,0.7c-1.2,0-2.1-0.2-2.9-0.6
		c-0.7-0.4-1.3-0.9-1.8-1.6c-0.4-0.7-0.8-1.4-0.9-2.2c-0.2-0.8-0.3-1.6-0.3-2.4v-10h7.2v8.7c0,0.8,0.1,1.4,0.4,1.7s0.7,0.5,1.2,0.5
		c0.5,0,0.9-0.2,1.2-0.6c0.3-0.4,0.5-0.9,0.5-1.7V7.7h7.2V24.1z"/>
	<path d="M174.2,0.5h7.4v23.6h-7.4V0.5z"/>
	<path d="M184.4,19.1l6.1-6.1h-6V7.7h14.9v4.7l-6.6,6.4h6.8v5.3h-15.3V19.1z"/>
</g>
</svg>
